 <svg version="1.0" xmlns="http://www.w3.org/2000/svg" width="700.000000pt" height="699.000000pt" viewBox="0 0 700.000000 699.000000" preserveAspectRatio="xMidYMid meet">
<metadata>
Created by potrace 1.12, written by Peter Selinger 2001-2015
</metadata>
<g transform="translate(0.000000,699.000000) scale(0.100000,-0.100000)" fill="#000000" stroke="none">
<path d="M3676 6220 c-44 -14 -66 -39 -66 -76 0 -18 5 -36 10 -39 6 -4 10 8
10 28 0 73 82 95 221 57 45 -12 89 -25 98 -30 9 -4 30 -14 46 -21 17 -7 65
-37 108 -67 43 -29 81 -51 84 -48 7 6 -22 36 -35 36 -26 0 -45 42 -43 94 1 30
-2 56 -6 59 -12 7 -74 -13 -69 -22 3 -4 19 -6 36 -3 30 4 31 3 24 -24 -4 -16
-10 -33 -15 -38 -4 -5 -36 5 -71 23 -135 65 -263 93 -332 71z"></path>
<path d="M4354 6175 c-21 -19 -42 -35 -46 -35 -5 0 -8 -4 -8 -9 0 -13 59 17
98 51 26 22 29 28 14 28 -10 0 -36 -16 -58 -35z"></path>
<path d="M3305 6099 c-327 -31 -756 -173 -1050 -347 -174 -103 -373 -250 -473
-349 -23 -24 -47 -43 -52 -43 -5 0 -26 -20 -46 -44 -49 -58 -96 -68 -164 -32
-57 30 -108 40 -154 32 -49 -9 -129 -84 -145 -135 -8 -27 -32 -61 -71 -100
-55 -55 -101 -125 -100 -153 1 -7 13 10 27 37 14 28 54 77 88 110 34 33 65 72
68 86 17 70 81 124 158 135 37 5 56 1 110 -25 104 -49 142 -41 203 41 28 38
86 62 94 39 6 -18 45 -13 79 12 17 12 64 49 105 83 213 176 490 332 753 422
235 80 377 112 630 139 65 7 70 10 72 33 1 14 3 34 5 45 4 24 -12 26 -137 14z"></path>
<path d="M3630 6081 c0 -6 4 -13 10 -16 6 -3 7 1 4 9 -7 18 -14 21 -14 7z"></path>
<path d="M3480 6061 c0 -10 50 -25 58 -17 2 3 -7 10 -22 16 -33 12 -36 12 -36
1z"></path>
<path d="M3594 6021 c22 -11 42 -18 45 -16 9 10 -15 25 -49 31 l-35 6 39 -21z"></path>
<path d="M5510 6030 c0 -5 4 -10 9 -10 6 0 13 5 16 10 3 6 -1 10 -9 10 -9 0
-16 -4 -16 -10z"></path>
<path d="M3672 5993 c15 -15 30 -24 34 -21 8 8 -32 48 -48 48 -7 0 0 -12 14
-27z"></path>
<path d="M4303 6013 c-21 -8 -15 -23 10 -23 20 0 71 -40 107 -86 11 -13 52
-27 123 -44 86 -20 108 -29 116 -47 6 -12 38 -36 73 -53 35 -17 78 -40 95 -51
l33 -20 45 32 c25 18 45 36 45 41 0 4 -15 14 -32 22 -18 7 -73 33 -123 56 -75
35 -94 41 -116 33 -19 -8 -44 -5 -95 9 -38 11 -81 22 -96 25 -16 3 -28 8 -28
12 0 10 78 71 92 71 7 0 22 8 33 17 18 14 18 15 2 9 -10 -3 -29 -6 -42 -6 -14
0 -37 -13 -54 -32 l-30 -32 -20 25 c-16 19 -22 21 -29 11 -8 -12 -13 -12 -31
-1 -11 8 -21 19 -21 26 0 13 -33 16 -57 6z"></path>
<path d="M4370 6016 c0 -2 7 -7 16 -10 8 -3 12 -2 9 4 -6 10 -25 14 -25 6z"></path>
<path d="M5458 6013 c7 -3 16 -2 19 1 4 3 -2 6 -13 5 -11 0 -14 -3 -6 -6z"></path>
<path d="M4196 5995 c-5 -13 1 -16 32 -13 45 4 49 22 6 26 -22 2 -33 -2 -38
-13z"></path>
<path d="M5320 5970 c-8 -5 -23 -7 -32 -4 -10 3 -18 1 -18 -5 0 -6 8 -11 18
-11 18 1 74 29 57 29 -5 1 -17 -4 -25 -9z"></path>
<path d="M3713 5945 c-18 -20 -28 -111 -13 -120 6 -4 17 -2 23 4 6 6 21 11 34
11 18 0 23 6 23 24 0 14 6 31 14 39 12 12 9 16 -23 32 -20 11 -38 20 -41 21
-3 1 -10 -4 -17 -11z"></path>
<path d="M4251 5946 c-13 -7 -33 -11 -45 -8 -12 3 -17 1 -13 -4 5 -5 13 -9 18
-9 12 0 13 -8 5 -51 -14 -72 37 -130 104 -119 22 4 40 11 40 16 0 6 -15 7 -34
4 -28 -6 -39 -2 -67 23 -24 22 -31 34 -23 42 7 7 14 3 23 -14 17 -32 52 -40
95 -22 38 16 55 10 28 -10 -13 -9 -14 -16 -6 -24 9 -9 15 -6 27 10 12 18 19
20 35 11 11 -6 22 -8 24 -5 3 2 24 -14 47 -36 23 -23 60 -48 82 -55 49 -18 42
-2 -12 25 -21 11 -39 25 -39 30 0 5 -27 26 -60 47 -46 29 -60 44 -60 63 -1 17
-16 37 -46 63 -48 40 -82 46 -123 23z m76 -17 c27 -10 43 -25 43 -42 0 -4 -8
-4 -17 1 -10 5 -34 9 -52 11 -43 2 -47 6 -31 26 15 18 20 18 57 4z"></path>
<path d="M4108 5938 c-9 -7 -18 -22 -20 -33 -4 -23 -48 -29 -55 -7 -3 6 2 12
11 12 15 0 32 18 23 26 -2 3 -21 -3 -41 -12 -34 -17 -35 -19 -20 -36 20 -21
22 -121 4 -143 -12 -14 1 -17 153 -29 67 -5 74 6 16 23 -26 8 -43 20 -46 32
-3 10 -11 19 -18 19 -6 0 -20 9 -29 19 -17 19 -17 21 20 65 21 25 45 48 53 51
13 5 14 7 1 15 -20 13 -33 12 -52 -2z m-48 -84 c0 -8 -5 -12 -10 -9 -6 4 -8
11 -5 16 9 14 15 11 15 -7z m10 -64 c0 -5 -4 -10 -10 -10 -5 0 -10 5 -10 10 0
6 5 10 10 10 6 0 10 -4 10 -10z m27 -35 c3 -9 3 -18 0 -21 -9 -9 -48 16 -42
27 9 14 35 11 42 -6z"></path>
<path d="M6145 5881 c-77 -21 -189 -48 -250 -61 -60 -13 -114 -27 -119 -31
-21 -19 -46 -10 -46 16 0 36 -21 40 -93 21 -137 -38 -152 -47 -103 -66 13 -5
29 -16 34 -26 8 -15 9 -15 16 1 3 9 4 20 1 25 -8 12 79 22 107 11 20 -7 27
-19 32 -53 8 -48 39 -88 70 -88 11 0 33 4 50 10 94 30 201 60 213 60 21 0 16
-11 -40 -83 -65 -86 -113 -150 -201 -271 -66 -90 -70 -94 -90 -80 -28 19 -53
18 -93 -7 -46 -29 -35 -35 20 -11 44 20 46 20 76 1 17 -10 31 -23 31 -27 0
-20 43 -57 63 -54 16 2 18 0 8 -6 -25 -18 61 -19 106 -2 23 8 45 19 49 23 4 4
30 8 58 8 l51 1 -42 10 c-36 9 -48 7 -96 -17 -82 -39 -95 -31 -46 30 22 28 87
118 146 200 147 210 154 218 164 208 5 -5 18 -68 29 -139 24 -151 39 -191 75
-200 34 -8 72 9 86 40 12 25 2 103 -41 341 -11 65 -17 128 -14 155 6 49 -12
83 -51 93 -11 3 -83 -11 -160 -32z"></path>
<path d="M3828 5903 c7 -3 16 -2 19 1 4 3 -2 6 -13 5 -11 0 -14 -3 -6 -6z"></path>
<path d="M3574 5847 c-63 -64 -67 -72 -55 -95 10 -19 129 -97 137 -90 2 3 -7
31 -21 64 -13 32 -24 52 -25 43 0 -22 -27 -31 -52 -18 -19 10 -19 11 -2 30 12
13 26 18 40 15 19 -5 22 -1 28 33 3 22 9 46 12 55 11 29 -11 16 -62 -37z"></path>
<path d="M3872 5868 c2 -14 10 -23 21 -23 19 0 37 -21 37 -42 0 -7 -9 -13 -19
-13 -14 0 -20 -9 -23 -34 -4 -34 -3 -35 27 -29 16 3 32 8 36 12 3 3 1 39 -4
79 l-9 72 -35 0 c-30 0 -34 -3 -31 -22z"></path>
<path d="M3890 5815 c0 -8 4 -15 10 -15 5 0 7 7 4 15 -4 8 -8 15 -10 15 -2 0
-4 -7 -4 -15z"></path>
<path d="M3767 5803 c-4 -6 -5 -18 -1 -26 6 -16 -22 -31 -31 -17 -11 17 -25
11 -25 -10 0 -23 48 -120 59 -120 5 0 16 9 27 21 10 12 31 27 46 35 16 8 28
19 28 25 0 7 -10 5 -24 -5 -29 -19 -33 -14 -57 58 -9 27 -19 45 -22 39z"></path>
<path d="M4425 5760 c-3 -5 -17 -10 -30 -10 -13 0 -27 -4 -30 -10 -3 -5 -17
-10 -30 -10 -28 0 -55 -9 -55 -19 0 -10 122 -8 137 2 20 12 34 45 24 52 -5 3
-12 1 -16 -5z"></path>
<path d="M4157 5596 c-85 -94 -178 -157 -312 -211 -19 -8 -19 -8 -2 -12 25 -6
129 46 202 101 33 25 63 46 68 46 4 0 7 -10 8 -22 1 -18 3 -16 8 8 7 29 46 91
66 106 6 4 16 6 23 3 31 -12 45 -15 25 -4 -23 12 -32 39 -13 39 6 0 10 5 10
10 0 22 -21 7 -83 -64z"></path>
<path d="M3710 5629 c0 -5 5 -7 10 -4 6 3 10 8 10 11 0 2 -4 4 -10 4 -5 0 -10
-5 -10 -11z"></path>
<path d="M5103 5604 c-24 -14 -43 -30 -43 -34 0 -4 20 -20 45 -35 82 -47 238
-180 369 -313 116 -119 127 -133 115 -149 -26 -33 -62 -63 -75 -63 -20 0 -70
-47 -83 -77 -7 -17 -29 -36 -54 -48 -32 -15 -48 -32 -67 -71 -14 -28 -34 -64
-45 -80 -34 -48 -45 -82 -45 -140 0 -50 -5 -62 -46 -119 -25 -35 -62 -74 -82
-86 -20 -12 -39 -24 -40 -25 -2 -1 -1 -12 3 -23 7 -24 27 -27 44 -7 24 29 163
118 171 110 4 -5 11 -19 14 -31 6 -19 -4 -28 -79 -73 -48 -28 -90 -48 -96 -45
-5 4 -9 -2 -9 -12 0 -21 46 -93 59 -93 5 0 28 29 51 65 24 36 51 70 61 75 30
17 73 11 110 -14 50 -34 106 -47 154 -36 22 5 64 10 93 10 l52 0 1 -72 c1 -82
5 -76 17 27 l8 70 -34 -3 c-54 -7 -115 24 -185 92 -99 96 -173 266 -160 365 6
45 49 101 77 101 25 0 19 -37 -9 -62 -47 -41 -28 -143 52 -275 48 -79 131
-159 174 -168 26 -6 79 17 79 34 0 4 -27 31 -61 60 -33 30 -65 64 -71 77 -11
24 -48 34 -48 13 0 -12 47 -78 68 -96 8 -6 12 -17 10 -24 -2 -7 -29 12 -64 47
-80 80 -137 190 -132 259 4 56 23 71 31 23 3 -18 10 -46 16 -62 18 -44 31 -19
19 34 -6 25 -12 75 -15 111 -4 63 -3 68 27 103 18 20 41 36 51 36 16 0 19 -8
19 -50 0 -29 5 -50 11 -50 5 0 7 -4 4 -10 -3 -5 -2 -10 4 -10 14 0 23 18 12
22 -15 5 3 122 23 153 10 14 33 33 53 41 36 16 38 26 3 29 -30 2 -83 81 -75
113 5 24 -7 39 -102 133 -104 102 -314 279 -330 279 -4 -1 -27 -12 -50 -26z
m197 -902 c0 -99 114 -294 213 -367 50 -36 37 -52 -28 -36 -125 31 -235 182
-235 323 0 49 22 108 40 108 6 0 10 -13 10 -28z"></path>
<path d="M4293 5593 c9 -2 23 -2 30 0 6 3 -1 5 -18 5 -16 0 -22 -2 -12 -5z"></path>
<path d="M4350 5591 c0 -7 8 -14 18 -17 9 -3 36 -15 59 -27 23 -11 45 -18 49
-14 10 10 -23 34 -61 46 -16 5 -38 12 -47 16 -11 4 -18 3 -18 -4z"></path>
<path d="M3655 5551 c-6 -5 -23 -11 -40 -13 l-30 -4 29 -9 c30 -8 56 1 64 23
4 14 -10 16 -23 3z"></path>
<path d="M3529 5539 c-10 -6 -4 -9 19 -9 17 0 32 2 32 4 0 9 -39 13 -51 5z"></path>
<path d="M4980 5505 l-25 -14 26 -1 c15 0 29 7 33 15 7 18 -2 18 -34 0z"></path>
<path d="M3691 5443 c-1 -52 32 -83 88 -82 l36 0 -46 15 c-46 14 -59 30 -72
89 -3 11 -5 1 -6 -22z"></path>
<path d="M4100 5435 c-7 -9 -10 -18 -7 -21 7 -8 47 14 47 26 0 15 -26 12 -40
-5z"></path>
<path d="M4779 5328 c-98 -114 -193 -279 -214 -373 -4 -16 -14 -52 -22 -78 -9
-26 -13 -51 -9 -54 3 -4 6 -1 6 6 0 7 6 19 13 26 39 44 59 83 47 90 -14 9 -1
28 14 22 19 -7 37 30 30 60 -5 18 -4 24 5 19 6 -4 11 -29 11 -57 0 -72 15 -60
30 24 20 114 70 243 131 335 33 50 8 38 -42 -20z"></path>
<path d="M1857 5302 c4 -16 -2 -34 -17 -53 -12 -17 -19 -34 -15 -37 7 -8 42
35 48 60 3 9 -1 25 -9 35 -12 17 -13 16 -7 -5z"></path>
<path d="M1750 5184 c-19 -7 -53 -13 -76 -13 -39 -1 -41 -2 -42 -34 -1 -19 -6
-46 -12 -61 -13 -35 -13 -36 5 -36 15 0 23 22 27 80 3 30 7 35 32 38 l29 4 -6
-76 c-5 -61 -4 -76 7 -76 14 0 26 29 26 68 0 17 5 23 17 20 19 -3 35 -52 27
-83 -3 -15 4 -25 36 -42 22 -12 40 -18 40 -13 0 5 -9 12 -20 15 -17 5 -20 15
-20 59 0 55 -19 86 -53 86 -27 0 -30 20 -8 42 l22 20 34 -26 c39 -30 55 -74
55 -153 0 -45 3 -53 18 -53 11 0 24 -11 30 -25 15 -32 32 -32 32 -1 0 24 -23
56 -41 56 -5 0 -9 18 -9 40 0 32 4 40 18 40 23 0 57 -35 71 -73 13 -32 9 -65
-14 -155 -9 -35 -14 -68 -12 -75 6 -14 46 70 47 97 0 16 2 17 16 5 31 -25 -9
-151 -75 -233 -17 -21 -31 -43 -31 -47 0 -11 -76 -50 -83 -43 -3 3 4 15 14 27
58 64 62 72 39 74 -11 1 -29 -11 -40 -27 -12 -16 -48 -48 -80 -71 -33 -23 -60
-45 -60 -48 0 -4 15 -15 33 -24 31 -17 37 -17 70 -3 109 45 239 223 254 346 5
43 3 51 -21 73 -40 37 -30 82 12 56 96 -60 48 -274 -94 -422 -76 -79 -127
-107 -193 -107 l-56 0 4 -56 c6 -105 -7 -180 -38 -213 -40 -43 -76 -49 -107
-20 -32 30 -29 61 17 160 35 75 43 145 20 172 -20 25 -73 21 -98 -5 -27 -29
-49 -84 -62 -151 -5 -29 -13 -65 -16 -80 -4 -15 -3 -27 2 -27 5 0 15 35 22 78
14 84 43 160 69 180 25 19 60 15 73 -9 16 -31 4 -90 -36 -169 -53 -105 -44
-150 36 -190 45 -23 84 -19 100 12 28 53 39 119 34 203 l-6 87 68 -6 c37 -3
91 -8 119 -11 45 -6 59 -3 114 25 62 31 63 32 105 16 23 -9 52 -28 65 -41 27
-28 46 -31 75 -9 17 13 18 16 5 24 -8 5 -18 10 -23 10 -11 0 -127 74 -127 81
0 4 8 17 19 30 18 22 19 22 36 5 15 -15 90 -74 141 -111 15 -10 46 3 50 21 2
5 -31 31 -72 57 -107 70 -111 78 -99 197 6 59 4 69 -19 110 -14 25 -33 61 -41
80 -30 67 -43 85 -83 108 -23 13 -44 33 -48 45 -9 31 -44 67 -81 82 -17 7 -42
28 -55 45 -22 30 -67 61 -85 59 -4 -1 -24 -7 -43 -15z m418 -407 c54 -149 -91
-380 -248 -395 -33 -3 -50 -1 -50 6 0 14 55 44 64 35 3 -4 6 -1 6 6 0 8 24 39
53 70 56 62 137 210 137 253 0 30 9 58 19 58 4 0 12 -15 19 -33z"></path>
<path d="M6115 5178 c11 -6 33 -22 49 -37 16 -15 27 -20 24 -11 -5 17 -65 60
-82 60 -6 0 -2 -6 9 -12z"></path>
<path d="M1576 5126 c-9 -14 -13 -32 -10 -40 9 -23 23 -19 17 4 -3 12 2 29 12
40 10 11 13 20 8 20 -6 0 -18 -11 -27 -24z"></path>
<path d="M6211 5074 c0 -11 3 -14 6 -6 3 7 2 16 -1 19 -3 4 -6 -2 -5 -13z"></path>
<path d="M5703 5054 c2 -24 -2 -29 -19 -26 -31 4 -52 -27 -56 -86 -2 -44 0
-52 15 -52 13 0 17 9 17 41 0 47 14 79 35 79 14 0 19 -28 18 -102 0 -10 4 -18
8 -18 13 0 19 31 19 100 0 74 4 81 35 70 16 -5 21 -19 25 -61 6 -66 24 -72 26
-9 2 63 -14 82 -75 88 -50 4 -50 4 -48 -24z"></path>
<path d="M5853 5032 c21 -23 22 -46 2 -62 -8 -7 -15 -17 -15 -24 0 -6 11 1 25
16 31 33 31 45 3 69 -27 24 -36 24 -15 1z"></path>
<path d="M6220 5036 c0 -9 27 -42 60 -75 33 -33 60 -57 60 -53 0 4 -22 30 -50
57 -27 27 -50 55 -50 62 0 6 -4 15 -10 18 -5 3 -10 -1 -10 -9z"></path>
<path d="M1665 4950 c-3 -5 -2 -10 4 -10 5 0 13 5 16 10 3 6 2 10 -4 10 -5 0
-13 -4 -16 -10z"></path>
<path d="M1610 4936 c0 -9 7 -16 16 -16 9 0 14 5 12 12 -6 18 -28 21 -28 4z"></path>
<path d="M4661 4893 c0 -31 2 -34 9 -18 12 28 12 55 0 55 -5 0 -10 -17 -9 -37z"></path>
<path d="M1041 4840 c0 -36 4 -74 8 -85 5 -11 6 12 4 55 -6 98 -11 112 -12 30z"></path>
<path d="M5495 4860 c-10 -31 4 -44 26 -24 10 9 19 23 19 31 0 21 -38 15 -45
-7z"></path>
<path d="M6366 4847 c3 -10 9 -15 12 -12 3 3 0 11 -7 18 -10 9 -11 8 -5 -6z"></path>
<path d="M5810 4840 c0 -5 -8 -7 -17 -4 -15 5 -16 4 -3 -5 21 -15 40 -13 40 4
0 8 -4 15 -10 15 -5 0 -10 -4 -10 -10z"></path>
<path d="M4661 4798 c-1 -21 4 -38 9 -38 12 0 12 27 0 55 -7 16 -9 13 -9 -17z"></path>
<path d="M4520 4774 c0 -14 3 -14 15 -4 8 7 15 14 15 16 0 2 -7 4 -15 4 -8 0
-15 -7 -15 -16z"></path>
<path d="M4521 4714 c0 -11 3 -14 6 -6 3 7 2 16 -1 19 -3 4 -6 -2 -5 -13z"></path>
<path d="M6391 4694 c0 -11 3 -14 6 -6 3 7 2 16 -1 19 -3 4 -6 -2 -5 -13z"></path>
<path d="M1090 4671 c0 -7 21 -34 46 -61 26 -28 42 -50 37 -50 -22 0 -121
-257 -176 -460 -19 -68 -63 -287 -72 -355 -4 -27 -9 -60 -12 -72 -7 -30 12
-30 69 2 l45 25 7 77 c7 79 37 238 57 308 29 101 91 279 114 329 14 30 25 59
25 65 0 18 20 23 37 10 37 -31 113 -230 113 -296 0 -18 4 -33 8 -33 16 0 -9
136 -40 214 -29 72 -41 89 -145 193 -62 63 -113 110 -113 104z"></path>
<path d="M1720 4630 c-12 -23 -5 -26 16 -6 16 17 18 26 4 26 -5 0 -14 -9 -20
-20z"></path>
<path d="M1752 4599 c-13 -16 -19 -29 -15 -29 9 0 53 46 53 55 0 13 -17 1 -38
-26z"></path>
<path d="M5670 4546 c0 -2 7 -6 15 -10 8 -3 15 -1 15 4 0 6 -7 10 -15 10 -8 0
-15 -2 -15 -4z"></path>
<path d="M4080 4522 c0 -10 -11 -29 -25 -42 -14 -13 -25 -28 -25 -34 0 -6 -17
-27 -37 -48 l-37 -38 -2 -101 c-3 -105 -14 -137 -33 -101 -19 35 -72 61 -116
56 -67 -8 -135 -68 -135 -119 0 -8 -11 -22 -25 -31 -13 -9 -27 -25 -31 -37 -4
-12 -19 -33 -35 -48 -21 -20 -29 -39 -34 -80 l-7 -54 31 52 c31 53 56 75 99
88 16 5 22 2 22 -9 0 -9 -4 -16 -9 -16 -5 0 -7 -8 -4 -18 3 -12 -7 -25 -33
-42 -20 -14 -44 -38 -53 -55 -9 -16 -17 -32 -18 -34 -2 -2 -9 2 -18 9 -13 10
-15 9 -15 -9 0 -11 -5 -21 -10 -21 -16 0 -49 -61 -42 -78 5 -13 7 -12 13 4 5
13 8 4 8 -29 1 -41 -4 -52 -34 -85 -39 -41 -46 -31 -15 22 14 22 17 37 10 41
-5 3 -10 21 -10 38 l-1 32 -13 -25 c-8 -14 -17 -44 -21 -67 -4 -23 -14 -53
-24 -65 -9 -13 -26 -41 -36 -62 -32 -64 -89 -113 -178 -155 -113 -53 -117 -54
-251 -60 -90 -5 -121 -9 -124 -20 -4 -12 11 -13 92 -7 l97 6 -17 -25 c-10 -15
-23 -24 -31 -21 -8 4 -50 6 -94 6 -64 0 -79 3 -79 15 0 8 -2 15 -5 15 -10 0
-143 -68 -172 -88 -15 -10 -41 -27 -56 -36 -15 -9 -25 -21 -21 -27 10 -16 48
-1 159 63 59 34 61 34 158 30 53 -2 97 -7 97 -11 0 -3 -7 -41 -15 -84 -8 -43
-15 -134 -15 -201 0 -182 9 -188 238 -141 67 14 141 34 163 46 23 11 42 19 43
17 11 -14 26 -79 26 -114 0 -24 5 -46 10 -49 21 -13 8 -33 -57 -89 -78 -66
-127 -126 -115 -138 5 -5 26 8 48 28 21 20 57 49 79 64 79 57 105 98 105 164
0 71 -14 90 -20 26 -5 -51 -6 -53 -18 -33 -7 13 -14 61 -15 108 -1 47 -3 85
-4 85 -1 0 -24 -14 -50 -30 -26 -17 -61 -30 -78 -30 -33 0 -156 59 -192 93
-13 11 -26 18 -29 14 -3 -3 8 -18 26 -34 l31 -28 -47 -47 c-49 -50 -73 -58
-94 -33 -15 19 13 105 48 142 25 27 25 27 -30 96 -41 53 -44 65 -27 133 12 45
33 58 43 27 11 -35 96 -112 234 -215 21 -15 62 -34 92 -43 30 -8 63 -20 73
-26 10 -5 22 -7 27 -4 5 3 13 -3 19 -12 9 -15 11 -12 11 17 4 110 10 153 34
225 14 44 34 94 45 112 23 37 109 104 189 149 54 30 88 67 46 49 -11 -4 -31
-8 -46 -10 -14 -1 -34 -10 -44 -20 -24 -24 -31 -2 -10 30 19 28 62 43 79 26
18 -18 35 -13 80 27 47 42 154 99 165 88 4 -4 7 -112 7 -239 0 -209 -3 -241
-23 -322 -49 -190 -109 -334 -169 -405 -92 -107 -197 -93 -272 36 -43 73 -40
69 -47 61 -7 -7 29 -89 57 -128 31 -44 97 -89 131 -89 62 0 153 70 198 150 8
15 25 45 37 66 12 22 40 57 63 79 47 46 100 132 100 164 0 34 -13 24 -49 -39
-19 -33 -39 -60 -43 -60 -11 0 -11 0 11 83 30 112 44 230 44 375 l0 132 27 0
c39 0 200 83 256 131 33 28 54 39 78 39 49 0 97 19 133 53 18 17 34 29 37 26
2 -2 22 -40 46 -84 23 -44 51 -89 61 -100 19 -19 19 -19 19 1 0 11 6 29 14 39
13 18 14 18 41 -3 16 -12 30 -21 32 -19 5 5 -36 53 -124 146 -76 81 -108 119
-136 164 -10 15 -22 27 -27 27 -15 0 -12 -27 5 -44 8 -8 15 -21 15 -28 -1 -9
-5 -7 -14 5 -7 9 -22 17 -32 17 -14 0 -8 -10 25 -40 31 -29 41 -45 36 -59 -9
-28 -30 -43 -67 -46 -18 -1 -58 -10 -88 -19 -30 -9 -68 -19 -83 -21 -16 -3
-43 -15 -60 -27 -53 -38 -127 -68 -167 -68 -36 0 -38 2 -45 36 -5 30 -2 41 17
63 50 56 88 111 118 172 18 35 36 72 42 82 7 14 3 27 -16 52 -14 19 -26 37
-26 40 0 4 51 6 113 4 67 -1 123 2 140 9 30 13 31 16 18 41 -8 14 -22 17 -93
14 -46 -1 -119 -12 -162 -23 -44 -11 -85 -20 -91 -20 -21 0 -95 81 -95 103 0
11 10 48 21 80 16 45 20 74 16 112 -3 29 -1 57 3 61 13 13 90 155 90 165 0 5
-7 9 -15 9 -8 0 -15 -8 -15 -18z m-230 -356 c0 -10 -12 -14 -37 -13 -21 1 -47
-2 -58 -7 -17 -7 -17 -5 4 13 27 24 91 29 91 7z m95 -98 c17 -11 21 -17 10
-13 -75 27 -195 11 -230 -30 -15 -18 -26 -23 -48 -18 -21 4 -25 8 -17 19 6 7
25 16 41 19 16 4 29 13 29 21 0 7 10 16 23 18 12 3 31 7 42 10 37 8 120 -6
150 -26z m55 -33 c11 -13 10 -14 -4 -9 -9 3 -16 10 -16 15 0 13 6 11 20 -6z
m-121 -29 l25 -14 -35 -17 c-19 -10 -36 -21 -39 -24 -3 -3 -20 -17 -39 -30
-33 -23 -33 -23 -53 -4 -19 20 -19 20 7 51 23 27 65 49 100 51 6 0 21 -6 34
-13z m262 -72 c11 -31 3 -64 -16 -64 -13 0 -25 30 -25 68 0 31 28 28 41 -4z
m-107 -68 c-3 -15 -17 -34 -30 -42 -12 -9 -21 -21 -19 -27 3 -7 -5 -23 -15
-36 -19 -22 -26 -23 -91 -19 -65 5 -73 8 -110 44 -22 21 -35 40 -29 42 7 3 25
-9 41 -24 30 -29 74 -36 139 -24 32 6 76 54 91 97 13 41 34 31 23 -11z m-362
-59 c-25 -26 -59 -125 -38 -107 8 5 24 33 37 60 13 28 27 50 31 50 17 0 18
-23 2 -41 -23 -25 -10 -37 16 -14 16 14 23 16 32 7 9 -9 7 -18 -8 -39 -32 -44
-36 -53 -24 -53 6 0 20 16 31 35 23 38 44 37 35 -1 -7 -27 8 -33 18 -8 5 12
13 14 34 9 36 -9 37 -11 18 -40 -9 -14 -12 -25 -6 -25 6 0 19 13 28 30 22 39
57 42 48 4 -15 -58 -104 -134 -158 -134 -40 0 -33 32 17 77 75 66 47 61 -33
-6 -68 -57 -107 -79 -119 -67 -3 3 4 17 16 32 29 37 17 44 -17 11 -37 -36 -46
-34 -38 7 4 20 2 37 -4 41 -5 3 -10 39 -10 78 0 78 14 107 60 130 14 7 26 18
26 25 3 27 7 26 17 -6 9 -28 7 -36 -11 -55z m415 18 c-7 -48 -32 -105 -46
-105 -21 0 -19 33 4 66 14 20 25 47 25 60 0 13 5 24 11 24 8 0 10 -14 6 -45z
m-70 -131 c3 -31 -22 -66 -69 -96 -42 -28 -50 -21 -23 18 14 20 25 50 25 66 0
23 4 29 15 24 9 -3 18 1 22 10 9 24 28 10 30 -22z m-453 -116 c3 -32 5 -58 3
-58 -2 0 -22 9 -45 20 l-41 20 24 25 c14 13 25 35 25 48 0 13 3 27 7 31 10 10
19 -19 27 -86z m686 -8 c-42 -34 -145 -81 -189 -87 -36 -5 -41 -3 -41 15 0 17
7 20 50 20 36 1 68 10 117 35 79 39 98 44 63 17z m-761 -52 c33 -17 61 -36 61
-41 0 -5 16 -27 35 -48 19 -22 35 -45 35 -53 0 -8 -16 -28 -36 -45 l-36 -32
-38 35 c-21 19 -51 43 -67 53 -27 17 -83 71 -83 79 0 11 51 84 59 84 4 0 36
-14 70 -32z m229 -8 c-46 -8 -88 -35 -88 -58 -1 -13 -6 -10 -26 12 l-26 30 23
9 c31 13 120 24 139 18 8 -3 -1 -8 -22 -11z m-279 -140 l32 -31 -22 -32 c-13
-18 -24 -34 -26 -36 -5 -8 -93 71 -93 83 0 16 39 45 61 45 9 1 30 -13 48 -29z
m-130 -38 c21 -15 66 -53 101 -85 l63 -56 -17 -41 c-9 -22 -16 -49 -16 -60 0
-10 -4 -21 -8 -24 -10 -6 -132 56 -178 91 -41 30 -54 29 -24 -2 13 -14 29 -25
36 -25 7 0 16 -9 19 -20 7 -22 -47 -100 -68 -100 -17 1 -97 74 -97 88 0 18 54
91 68 92 21 0 13 21 -25 68 -21 25 -33 47 -28 49 6 2 33 14 60 27 64 31 68 31
114 -2z m-634 -134 c-11 -7 -26 -18 -33 -25 -15 -15 -32 -17 -32 -5 0 5 15 16
33 25 37 18 62 22 32 5z m680 -628 c-10 -11 -21 -17 -24 -14 -3 3 3 12 13 20
28 20 32 17 11 -6z"></path>
<path d="M3830 3985 c0 -8 5 -15 10 -15 6 0 10 7 10 15 0 8 -4 15 -10 15 -5 0
-10 -7 -10 -15z"></path>
<path d="M6275 4499 c-115 -93 -138 -113 -156 -143 -10 -17 -19 -41 -19 -53 0
-14 -6 -23 -15 -23 -9 0 -12 -6 -8 -17 5 -12 3 -14 -7 -8 -10 6 -12 3 -7 -11
19 -61 52 -181 71 -256 11 -49 24 -88 29 -88 15 0 87 51 88 63 2 16 2 15 -38
147 -70 232 -72 244 -60 258 6 8 44 41 84 74 40 32 78 68 83 79 14 25 14 25
-45 -22z"></path>
<path d="M3557 4493 c-18 -28 -25 -58 -29 -110 -5 -71 -5 -73 18 -73 27 0 31
12 38 105 2 33 7 72 11 88 11 40 -10 34 -38 -10z"></path>
<path d="M5660 4499 c0 -4 14 -15 30 -24 23 -12 30 -13 30 -2 0 7 -13 18 -30
24 -16 6 -30 7 -30 2z"></path>
<path d="M2993 4453 c-15 -5 -17 -23 -4 -23 5 0 11 7 15 15 3 8 4 15 3 14 -1
0 -8 -3 -14 -6z"></path>
<path d="M5710 4436 c0 -9 5 -16 10 -16 6 0 10 4 10 9 0 6 -4 13 -10 16 -5 3
-10 -1 -10 -9z"></path>
<path d="M5832 4369 c-49 -19 -52 -100 -8 -202 44 -97 29 -167 -35 -167 -36 1
-67 30 -89 85 l-19 50 -1 -38 c0 -43 19 -96 43 -116 40 -32 157 34 157 89 0
12 -16 55 -35 97 -57 123 -46 204 26 189 16 -3 28 -2 25 3 -9 14 -40 19 -64
10z"></path>
<path d="M2706 4329 c-48 -30 -51 -43 -11 -51 14 -2 19 -10 17 -25 -2 -12 2
-24 8 -28 6 -4 10 4 10 19 0 14 7 44 16 66 9 23 15 43 13 45 -3 2 -26 -10 -53
-26z"></path>
<path d="M5910 4319 c7 -11 14 -19 16 -16 7 7 -7 37 -17 37 -6 0 -5 -9 1 -21z"></path>
<path d="M2625 4280 c-3 -5 1 -10 9 -10 9 0 16 5 16 10 0 6 -4 10 -9 10 -6 0
-13 -4 -16 -10z"></path>
<path d="M5934 4265 c24 -135 30 -204 30 -365 l0 -185 -36 -90 c-50 -124 -61
-170 -59 -245 3 -105 58 -191 123 -190 21 1 21 2 -7 14 -16 7 -41 26 -55 41
-23 25 -25 33 -24 128 2 102 5 116 58 264 21 59 26 90 26 168 0 103 13 120 24
33 10 -76 34 -154 53 -170 14 -11 15 -10 10 7 -3 11 -9 38 -12 60 -4 22 -14
63 -22 92 -8 28 -17 80 -21 115 -5 45 -11 63 -22 63 -11 0 -18 31 -32 128 -10
71 -23 136 -29 145 -8 14 -9 11 -5 -13z"></path>
<path d="M2550 4253 c-14 -10 -42 -25 -64 -33 -22 -8 -41 -20 -43 -26 -2 -6
20 -26 49 -44 29 -19 70 -47 91 -64 27 -21 40 -27 48 -19 19 19 0 50 -56 89
-53 36 -66 56 -45 69 11 7 67 -20 97 -47 16 -15 29 -19 47 -14 33 8 33 20 0
43 -15 10 -36 28 -49 41 -27 27 -43 28 -75 5z"></path>
<path d="M4765 4177 c-62 -42 -91 -69 -93 -84 -5 -34 13 -29 104 32 46 30 88
55 93 55 6 0 11 -10 10 -22 0 -28 -98 -101 -159 -120 -44 -14 -44 -15 -30 -52
9 -24 34 -35 42 -18 5 12 107 82 120 82 6 0 1 -12 -13 -27 -71 -80 -92 -114
-81 -136 15 -32 82 -107 95 -107 7 0 37 34 67 76 30 42 68 92 83 110 18 20 26
38 21 46 -13 21 -117 152 -126 159 -5 3 -12 19 -16 34 -5 16 -12 30 -18 31 -5
2 -49 -25 -99 -59z"></path>
<path d="M6036 4189 c-15 -38 -29 -115 -18 -105 9 10 42 130 36 135 -2 2 -10
-11 -18 -30z"></path>
<path d="M2731 4174 c0 -11 3 -14 6 -6 3 7 2 16 -1 19 -3 4 -6 -2 -5 -13z"></path>
<path d="M1427 4164 c-4 -4 -7 -14 -7 -23 0 -11 3 -12 11 -4 6 6 10 16 7 23
-2 6 -7 8 -11 4z"></path>
<path d="M1382 4091 c-1 -100 -40 -227 -121 -391 -28 -59 -51 -113 -51 -121 0
-9 -10 -24 -21 -35 -19 -17 -20 -26 -15 -77 7 -72 25 -106 71 -142 90 -68 187
-44 236 60 28 61 31 140 7 235 -61 248 -64 265 -64 382 1 64 -3 114 -7 111 -5
-3 -11 4 -14 16 -10 39 -20 21 -21 -38z m22 -146 c-6 -79 4 -143 38 -260 45
-152 40 -274 -12 -336 -26 -32 -32 -34 -88 -34 -69 0 -94 16 -123 80 -35 75
-19 143 76 340 56 116 70 155 90 258 3 15 10 27 15 27 5 0 7 -31 4 -75z"></path>
<path d="M3420 4047 c-7 -45 -18 -85 -24 -89 -6 -4 -27 -8 -47 -8 -31 0 -43 7
-75 44 -22 24 -48 59 -59 77 -32 51 -49 58 -81 29 -31 -29 -67 -107 -59 -128
4 -12 13 -8 38 16 18 18 36 32 41 32 13 0 97 -73 91 -79 -4 -3 -34 -13 -67
-21 -67 -17 -98 -48 -37 -36 19 3 92 15 163 26 72 11 132 22 134 25 2 2 7 44
10 93 6 118 -11 130 -28 19z m-226 11 c24 -34 19 -44 -9 -18 -14 13 -25 27
-25 32 0 16 19 8 34 -14z m-62 -20 c-7 -7 -12 -8 -12 -2 0 6 3 14 7 17 3 4 9
5 12 2 2 -3 -1 -11 -7 -17z"></path>
<path d="M6587 3987 c-17 -26 -13 -58 10 -92 12 -18 13 -17 13 17 0 36 1 36
36 34 19 -2 32 -1 27 3 -4 3 -22 19 -39 34 l-31 28 -16 -24z"></path>
<path d="M4460 3905 c0 -8 4 -15 10 -15 5 0 7 7 4 15 -4 8 -8 15 -10 15 -2 0
-4 -7 -4 -15z"></path>
<path d="M2835 3792 c-265 -147 -357 -323 -223 -426 44 -33 131 -66 171 -65
29 0 28 2 -19 18 -85 29 -142 68 -165 113 -30 59 -13 114 59 191 50 52 170
132 238 157 26 10 28 33 3 37 -8 2 -36 -10 -64 -25z"></path>
<path d="M6245 3708 c-11 -6 -30 -17 -43 -25 l-24 -14 36 -35 c31 -30 36 -41
36 -82 -1 -38 -6 -53 -31 -80 -16 -18 -34 -30 -39 -27 -14 9 -12 -14 4 -68 10
-33 12 -74 8 -135 -3 -48 -5 -111 -4 -141 1 -30 -5 -80 -12 -110 -8 -31 -19
-87 -26 -126 -54 -330 -280 -798 -534 -1110 -77 -94 -271 -287 -366 -364 -201
-163 -404 -286 -630 -382 -101 -42 -336 -119 -366 -119 -13 0 -56 -9 -96 -20
-116 -31 -284 -48 -559 -55 -241 -7 -263 -6 -370 15 -83 17 -118 28 -130 43
-15 19 -16 18 -24 -24 -5 -24 -8 -49 -8 -55 0 -7 -21 -36 -48 -65 -26 -29 -47
-55 -45 -56 6 -6 150 28 163 38 17 15 16 33 -2 69 -20 39 -3 38 27 -1 13 -17
33 -41 45 -55 l22 -24 283 0 c294 0 382 8 568 50 52 12 120 25 151 31 31 5 87
21 125 35 38 14 98 34 134 44 226 65 539 239 820 456 122 94 317 297 421 438
49 67 102 137 117 156 52 64 179 299 242 447 86 204 136 371 165 558 9 61 21
130 27 155 12 56 23 520 13 595 -7 57 -14 63 -50 43z m-3115 -2970 c0 -4 -18
-8 -40 -8 -45 0 -51 11 -18 34 20 14 24 14 40 -1 10 -9 18 -20 18 -25z"></path>
<path d="M5490 3645 c7 -8 17 -12 22 -9 6 4 5 10 -3 15 -22 14 -33 10 -19 -6z"></path>
<path d="M5540 3630 c0 -5 5 -10 11 -10 5 0 7 5 4 10 -3 6 -8 10 -11 10 -2 0
-4 -4 -4 -10z"></path>
<path d="M5600 3610 c8 -5 29 -10 45 -10 23 0 27 3 15 10 -8 5 -28 10 -45 10
-23 0 -27 -3 -15 -10z"></path>
<path d="M6110 3578 c0 -12 51 -120 55 -116 7 7 -25 92 -41 108 -8 8 -14 12
-14 8z"></path>
<path d="M1983 3550 c-13 -5 -44 -42 -69 -82 -26 -40 -72 -111 -102 -157 l-55
-83 39 -79 c21 -44 43 -79 49 -79 6 0 19 15 29 33 55 95 152 246 161 250 6 2
118 -109 250 -246 224 -234 366 -376 467 -472 72 -68 195 -209 202 -232 4 -12
15 -25 26 -28 10 -3 51 -45 91 -93 41 -48 88 -104 106 -124 l33 -38 14 35 c9
20 30 44 51 56 19 12 35 25 35 29 0 5 -73 84 -163 177 -153 157 -289 302 -502
534 -49 53 -162 173 -250 266 -88 92 -190 201 -226 240 -59 66 -116 104 -151
102 -7 0 -23 -4 -35 -9z"></path>
<path d="M5614 3528 c-3 -4 -21 -8 -40 -8 -19 0 -34 -4 -34 -8 0 -5 30 -5 68
0 97 12 102 14 54 19 -24 3 -46 1 -48 -3z"></path>
<path d="M561 3500 c0 -9 -31 -31 -68 -50 -73 -37 -161 -90 -150 -90 11 0 190
89 210 105 11 8 17 21 14 32 -3 13 -5 14 -6 3z"></path>
<path d="M4420 3469 c0 -6 -33 -57 -73 -113 -93 -128 -89 -120 -78 -149 6 -14
15 -70 21 -126 12 -109 5 -153 -39 -239 -12 -23 -21 -44 -21 -47 0 -36 127
113 175 206 39 76 46 105 14 65 -11 -14 -26 -23 -32 -19 -6 4 -8 1 -5 -9 4 -8
2 -21 -2 -28 -7 -11 -14 -12 -35 -2 -23 11 -24 15 -14 34 6 12 16 27 21 32 5
6 22 31 38 56 16 25 45 67 65 95 28 40 35 59 35 97 0 57 -36 158 -56 158 -8 0
-14 -5 -14 -11z"></path>
<path d="M959 3430 c-60 -32 -63 -39 -55 -153 22 -319 114 -697 229 -947 l25
-55 -21 -35 c-11 -19 -53 -84 -93 -145 -39 -60 -80 -128 -92 -150 -23 -45
-249 -408 -293 -470 -43 -60 -47 -98 -16 -129 49 -48 93 -31 148 58 19 31 80
127 136 213 56 87 148 231 205 320 57 90 107 163 111 163 4 0 11 -8 14 -17 4
-10 22 -43 41 -73 167 -268 336 -467 557 -658 l110 -94 60 6 c76 8 89 20 52
52 -23 20 -35 23 -67 18 -54 -9 -86 14 -117 84 -18 42 -51 81 -132 161 -134
132 -272 304 -356 443 -70 118 -95 163 -95 177 0 9 27 57 61 106 l61 90 -41
82 c-22 46 -45 83 -50 83 -5 0 -33 -40 -62 -90 -28 -49 -53 -90 -55 -90 -13 0
-79 168 -104 265 -4 17 -17 64 -28 105 -24 87 -48 218 -57 310 -4 36 -20 95
-36 131 -29 66 -29 93 -3 134 16 25 23 117 9 121 -5 2 -26 -5 -46 -16z"></path>
<path d="M6170 3308 c0 -8 -19 -36 -43 -62 -44 -47 -45 -58 -3 -31 25 17 63
91 53 102 -4 3 -7 -1 -7 -9z"></path>
<path d="M548 3211 c-21 -10 -41 -20 -44 -23 -3 -3 8 -32 25 -63 17 -32 31
-50 31 -41 0 10 4 14 10 11 10 -6 16 13 24 88 6 52 6 52 -46 28z"></path>
<path d="M267 3115 c9 -19 20 -32 24 -29 9 5 -22 64 -33 64 -4 0 0 -16 9 -35z"></path>
<path d="M301 3070 c0 -8 4 -22 9 -30 12 -18 12 -2 0 25 -6 13 -9 15 -9 5z"></path>
<path d="M1590 2968 c-12 -24 -42 -71 -66 -106 -24 -35 -44 -71 -44 -82 0 -17
62 -145 80 -163 4 -4 33 35 65 87 32 53 64 101 71 107 8 6 14 19 14 28 -1 22
-74 164 -87 168 -6 2 -21 -15 -33 -39z"></path>
<path d="M3451 2844 c0 -11 3 -14 6 -6 3 7 2 16 -1 19 -3 4 -6 -2 -5 -13z"></path>
<path d="M3495 2094 c-93 -47 -171 -89 -172 -92 -5 -12 65 -54 104 -62 63 -15
72 -7 208 172 45 60 50 68 38 68 -4 -1 -84 -39 -178 -86z"></path>
<path d="M2257 1788 c23 -39 21 -45 -20 -72 -41 -25 -25 -32 25 -11 24 11 44
20 46 21 6 4 -46 82 -60 90 -7 4 -3 -8 9 -28z"></path>
<path d="M2145 1660 c-16 -11 -26 -20 -22 -20 13 0 77 29 77 34 0 12 -26 5
-55 -14z"></path>
<path d="M2050 1633 c0 -28 17 -38 35 -23 19 16 19 34 1 27 -7 -3 -19 0 -25 6
-8 8 -11 5 -11 -10z"></path>
<path d="M2485 1423 c3 -16 15 -37 26 -49 10 -11 19 -25 19 -30 0 -12 36 -35
43 -27 3 3 -5 17 -19 32 -14 14 -32 43 -41 64 -18 43 -39 51 -28 10z"></path>
<path d="M2270 1397 c0 -4 9 -24 20 -44 11 -21 20 -46 20 -56 0 -17 19 -67 41
-109 5 -10 6 -24 2 -33 -7 -21 -49 -12 -80 17 -34 31 -49 17 -17 -17 l27 -30
-44 -8 c-24 -4 -62 -5 -84 -2 l-40 5 34 -22 c27 -17 37 -19 52 -10 34 21 57
15 64 -18 4 -20 13 -30 25 -30 10 0 20 -9 23 -21 5 -18 2 -20 -16 -15 -20 4
-19 2 6 -20 15 -13 37 -24 47 -24 10 0 21 -4 25 -9 6 -11 63 -41 77 -41 20 0
5 18 -29 36 -54 27 -91 69 -99 109 -8 43 2 77 16 55 6 -8 10 -27 10 -41 0 -34
42 -79 73 -79 14 0 30 -7 37 -15 7 -8 17 -15 22 -15 6 0 6 6 -1 14 -9 11 -5
20 19 44 16 17 30 40 30 51 0 11 4 22 10 26 7 4 -16 62 -34 82 0 1 -15 4 -31
8 l-30 7 25 -18 c14 -9 27 -19 28 -20 10 -7 20 -80 13 -87 -5 -5 -11 7 -15 27
-7 37 -37 66 -68 66 -10 0 -18 5 -18 10 0 6 4 10 9 10 5 0 11 9 14 21 5 18 10
20 38 14 19 -4 41 -12 51 -18 14 -9 40 -3 27 6 -38 29 -106 67 -120 67 -28 0
-49 -11 -49 -25 0 -8 8 -11 20 -8 27 7 27 -23 0 -37 -16 -9 -22 -7 -27 7 -4
10 -12 23 -18 28 -15 14 -38 83 -30 94 3 6 -8 25 -24 43 -17 18 -31 30 -31 25z
m144 -326 c39 -41 25 -80 -17 -48 -18 13 -35 77 -20 77 5 0 22 -13 37 -29z"></path>
<path d="M2815 1341 c-7 -12 12 -24 25 -16 11 7 4 25 -10 25 -5 0 -11 -4 -15
-9z"></path>
<path d="M2780 1285 c0 -17 -40 -39 -88 -50 -26 -5 -37 -3 -49 12 -13 16 -14
16 -9 1 3 -11 -2 -22 -15 -29 -11 -6 -19 -12 -17 -15 5 -4 147 24 160 32 11 7
192 7 275 0 68 -5 68 -5 28 9 -25 8 -86 14 -163 14 -119 1 -122 2 -112 21 7
14 7 20 0 20 -5 0 -10 -7 -10 -15z"></path>
<path d="M2590 1147 c0 -8 11 -24 25 -37 20 -19 24 -30 20 -52 -6 -23 -3 -28
13 -28 12 0 22 9 25 22 5 18 8 19 21 8 18 -14 21 -40 5 -40 -5 0 -7 -5 -3 -11
5 -9 -1 -10 -20 -5 -22 5 -26 3 -26 -14 0 -11 4 -20 10 -20 5 0 7 -7 3 -16 -6
-15 -8 -15 -20 2 -11 16 -17 16 -46 6 -19 -7 -43 -12 -55 -12 -32 0 -36 -17
-8 -35 23 -16 27 -15 55 6 25 18 33 20 46 9 23 -19 18 -30 -16 -30 -17 0 -28
-4 -24 -10 3 -5 19 -10 34 -10 15 0 32 -5 37 -10 8 -8 11 4 12 37 0 42 5 52
40 85 l40 37 -35 31 c-19 17 -52 42 -74 55 -21 14 -39 30 -39 35 0 6 -4 10
-10 10 -5 0 -10 -6 -10 -13z"></path>
<path d="M3165 1084 c-11 -17 -13 -25 -4 -22 16 5 44 48 31 48 -5 0 -17 -12
-27 -26z"></path>
<path d="M3130 990 c0 -5 10 -10 23 -10 12 0 39 -14 60 -31 20 -17 42 -29 47
-27 5 2 -13 20 -41 41 -48 35 -89 48 -89 27z"></path>
<path d="M2780 963 c-7 -16 -21 -45 -32 -66 l-19 -37 37 -40 c38 -40 73 -58
39 -20 -15 17 -17 26 -8 55 10 32 1 52 -10 23 -8 -24 -18 -1 -11 26 6 24 34
38 34 16 0 -19 21 -10 32 14 6 15 21 27 37 29 20 3 17 4 -11 6 -20 0 -40 6
-43 11 -11 18 -31 10 -45 -17z"></path>
<path d="M2950 971 c-22 -5 -25 -12 -27 -59 -1 -29 2 -50 6 -47 15 9 41 -6 41
-24 -1 -23 -24 -51 -43 -51 -13 0 -15 7 -11 33 l6 32 -29 -35 c-15 -19 -36
-43 -45 -52 -22 -22 -22 -37 0 -64 20 -24 70 -45 57 -24 -4 7 4 23 18 38 37
40 84 150 88 207 4 54 -5 61 -61 46z"></path>
<path d="M2435 880 c-3 -5 -1 -10 4 -10 6 0 11 5 11 10 0 6 -2 10 -4 10 -3 0
-8 -4 -11 -10z"></path>
<path d="M2185 865 l-40 -13 78 -1 c45 -1 77 3 77 9 0 6 -11 10 -24 10 -13 0
-30 2 -38 4 -7 3 -31 -1 -53 -9z"></path>
<path d="M2450 856 c0 -5 5 -24 12 -42 10 -28 8 -35 -12 -63 -25 -36 -20 -53
8 -28 25 23 39 21 46 -5 6 -26 55 -104 101 -161 30 -39 123 -112 131 -104 3 2
-7 12 -21 21 -39 25 -90 84 -143 161 -58 86 -69 107 -82 154 -9 36 -39 85 -40
67z"></path>
<path d="M2410 694 c0 -23 17 -34 53 -34 21 0 21 0 2 14 -11 7 -24 14 -29 14
-5 0 -13 6 -17 14 -6 9 -9 7 -9 -8z"></path>
<path d="M2870 633 c0 -10 5 -25 10 -33 8 -12 10 -9 10 12 0 15 -4 30 -10 33
-5 3 -10 -2 -10 -12z"></path>
<path d="M2910 572 c0 -11 9 -27 20 -37 24 -22 25 -14 5 25 -18 34 -25 38 -25
12z"></path>
<path d="M2860 504 c0 -11 -9 -25 -20 -32 -27 -16 -27 -36 0 -22 20 11 38 56
26 67 -3 4 -6 -2 -6 -13z"></path>
</g>
</svg>